<?xml version="1.0" encoding="UTF-8"?>
<svg width="24px" height="24px" viewBox="0 0 24 24" version="1.1" xmlns="http://www.w3.org/2000/svg" xmlns:xlink="http://www.w3.org/1999/xlink">
    <!-- Generator: Sketch 58 (84663) - https://sketch.com -->
    <title>MINIMIZE</title>
    <desc>Created with Sketch.</desc>
    <g id="Symbols" stroke="none" stroke-width="1" fill="none" fill-rule="evenodd">
        <g id="HEADER" transform="translate(-284.000000, -16.000000)" fill="#FFFFFF">
            <g id="MINIMIZE" transform="translate(284.000000, 16.000000)">
                <path d="M12,1.3655761 C8.55761024,1.3655761 5.91195628,2.23313618 4.13655761,3.9444486 C2.29782137,5.71670285 1.3655761,8.42689227 1.3655761,11.9998503 C1.3655761,15.5731077 2.29782137,18.2832971 4.13655761,20.0555514 C5.91195628,21.7667141 8.55761024,22.6344239 12,22.6344239 C15.4423898,22.6344239 18.0880437,21.7667141 19.8632927,20.0555514 C21.7020289,18.2832971 22.6344239,15.5731077 22.6344239,11.9998503 C22.6344239,8.42689227 21.7020289,5.71670285 19.8632927,3.9444486 C18.0880437,2.23313618 15.4423898,1.3655761 12,1.3655761 M12,24 C8.19195927,24 5.22752115,23.0036685 3.18888972,21.038856 C1.0728457,18.9993262 0,15.9580744 0,11.9998503 C0,8.04177585 1.0728457,5.0006738 3.18888972,2.96114397 C5.22752115,0.996181777 8.19195927,0 12,0 C15.8080407,0 18.7723291,0.996181777 20.8109605,2.96114397 C22.9271543,5.0006738 24,8.04177585 24,11.9998503 C24,15.9580744 22.9271543,18.9993262 20.8109605,21.038856 C18.7723291,23.0036685 15.8080407,24 12,24" id="Fill-2093"></path>
                <path d="M16.3929308,18.2141383 L7.60706916,18.2141383 C7.27184983,18.2141383 7,17.9422885 7,17.606936 C7,17.2718498 7.27184983,17 7.60706916,17 L16.3929308,17 C16.7282833,17 17,17.2718498 17,17.606936 C17,17.9422885 16.7282833,18.2141383 16.3929308,18.2141383" id="Fill-1528"></path>
            </g>
        </g>
    </g>
</svg>