<?xml version="1.0" encoding="UTF-8"?>
<svg width="46px" height="46px" viewBox="0 0 46 46" version="1.1" xmlns="http://www.w3.org/2000/svg" xmlns:xlink="http://www.w3.org/1999/xlink">
    <!-- Generator: Sketch 58 (84663) - https://sketch.com -->
    <title>BUTTON</title>
    <desc>Created with Sketch.</desc>
    <g id="Page-1" stroke="none" stroke-width="1" fill="none" fill-rule="evenodd">
        <g id="HABLA_CON_LAURA_01" transform="translate(-227.000000, -830.000000)">
            <g id="Group" transform="translate(223.000000, 826.000000)">
                <g id="BUTTON" transform="translate(4.000000, 4.000000)">
                    <path d="M23,0 C37.5670629,0 46,7.29757196 46,23 C46,38.702428 37.5670629,46 23,46 C8.43293707,46 0,38.702428 0,23 C0,7.29757196 8.43293707,0 23,0 Z" id="Fill-334" fill="#FFFFFF"></path>
                    <path d="M16.1970585,17.016569 C15.1870252,17.016569 13.3264375,17.5399855 12.4227235,20.9945341 C11.9974463,22.6171252 11.9442867,24.2920578 12.2100849,25.9146489 C12.4758831,27.2755317 12.8480007,28.6364145 13.3795972,29.9449556 C13.4859165,30.2066639 13.6453954,30.4683721 13.858034,30.6777387 C14.1769919,31.0441302 14.761748,31.2011551 15.2401848,31.0441302 C15.5591427,30.8871053 15.9312603,30.5207137 15.7717813,29.6832474 C15.665462,29.2121726 15.5591427,28.7410978 15.3996638,28.3223646 C15.0275462,27.3278733 14.761748,26.2286988 14.6022691,25.1818658 C14.5491094,23.978008 15.0275462,23.8733247 15.3465041,23.7686414 C15.8781006,23.6639581 16.3033778,24.2397162 16.728655,24.9201576 C17.2070918,25.7576239 18.1108058,27.2755317 18.8018813,28.4270479 C19.5461163,29.735589 20.9282672,30.5730554 22.469897,30.5207137 C24.3836443,30.4683721 25.7657952,29.735589 26.5100302,27.4848983 C26.9353074,26.0193322 27.4137442,24.6061077 27.9985004,23.2452249 C28.6895758,21.7796588 29.5932898,20.9421925 30.3906845,21.2039007 C31.08176,21.4132673 31.2943985,22.0937087 31.2943985,23.1405416 C31.2943985,24.0303496 31.1880793,25.0248409 31.1349196,25.7576239 C31.08176,26.1240155 31.0286003,26.490407 31.08176,26.8567985 C31.08176,27.4325566 31.4538775,27.9559731 32.0386336,28.112998 C32.729709,28.1653397 33.3676248,27.6942648 33.5271038,27.0138234 C33.6334231,26.6997736 33.6865827,26.3857237 33.7397424,26.0716738 C33.952381,24.8154743 34.0055406,23.5069332 33.8992213,22.198392 C33.792902,20.575801 33.4739441,19.0055516 32.8360283,17.5399855 C32.2512722,16.2314443 31.3475582,15.393978 30.1780459,15.3416364 C28.8490547,15.2369531 27.3605846,16.1267611 26.5631899,17.7493521 C25.8189548,19.2672598 25.2341987,20.8375092 24.9152408,21.6226339 C24.6494425,22.3554169 24.0115268,22.931175 23.214132,23.0358583 C22.2040987,23.1405416 21.3535444,22.4077586 20.7687882,21.4132673 C20.1308725,20.3140927 19.439797,19.2672598 18.5892427,18.3251102 C18.1108058,17.4876439 17.2070918,16.9642274 16.1970585,17.016569 Z" id="M" fill="#00A9E0" fill-rule="nonzero"></path>
                </g>
            </g>
        </g>
    </g>
</svg>