<?xml version="1.0" encoding="UTF-8"?>
<svg width="24px" height="24px" viewBox="0 0 24 24" version="1.1" xmlns="http://www.w3.org/2000/svg" xmlns:xlink="http://www.w3.org/1999/xlink">
    <!-- Generator: Sketch 58 (84663) - https://sketch.com -->
    <title>HELP</title>
    <desc>Created with Sketch.</desc>
    <g id="Symbols" stroke="none" stroke-width="1" fill="none" fill-rule="evenodd">
        <g id="HEADER" transform="translate(-320.000000, -16.000000)" fill="#FFFFFF">
            <g id="HELP" transform="translate(320.000000, 16.000000)">
                <path d="M12,1.3655761 C8.55761024,1.3655761 5.91195628,2.23313618 4.13655761,3.9444486 C2.29782137,5.71670285 1.3655761,8.42689227 1.3655761,11.9998503 C1.3655761,15.5731077 2.29782137,18.2832971 4.13655761,20.0555514 C5.91195628,21.7667141 8.55761024,22.6344239 12,22.6344239 C15.4423898,22.6344239 18.0880437,21.7667141 19.8632927,20.0555514 C21.7020289,18.2832971 22.6344239,15.5731077 22.6344239,11.9998503 C22.6344239,8.42689227 21.7020289,5.71670285 19.8632927,3.9444486 C18.0880437,2.23313618 15.4423898,1.3655761 12,1.3655761 M12,24 C8.19195927,24 5.22752115,23.0036685 3.18888972,21.038856 C1.0728457,18.9993262 0,15.9580744 0,11.9998503 C0,8.04177585 1.0728457,5.0006738 3.18888972,2.96114397 C5.22752115,0.996181777 8.19195927,0 12,0 C15.8080407,0 18.7723291,0.996181777 20.8109605,2.96114397 C22.9271543,5.0006738 24,8.04177585 24,11.9998503 C24,15.9580744 22.9271543,18.9993262 20.8109605,21.038856 C18.7723291,23.0036685 15.8080407,24 12,24" id="Fill-2093"></path>
                <g id="Group-2" transform="translate(8.000000, 6.000000)">
                    <path d="M3.50177778,11.2818 C3.04288889,11.2818 2.66933333,10.9082444 2.66933333,10.4493556 C2.66933333,9.99024444 3.04288889,9.61713333 3.50177778,9.61713333 C3.96066667,9.61713333 4.33422222,9.99024444 4.33422222,10.4493556 C4.33422222,10.9082444 3.96066667,11.2818 3.50177778,11.2818" id="Path"></path>
                    <path d="M3.50177778,8.85311111 C3.10066667,8.85311111 2.77422222,8.52688889 2.77422222,8.12555556 L2.77422222,7.20088889 C2.77422222,6.322 3.54666667,5.69333333 4.22822222,5.13844444 C4.37111111,5.02222222 4.50622222,4.91222222 4.62688889,4.80555556 C4.89222222,4.57177778 5.44377778,4.08511111 5.55777778,3.38488889 C5.63666667,2.90133333 5.52622222,2.46688889 5.23844444,2.12844444 C4.86955556,1.69422222 4.25266667,1.45511111 3.50177778,1.45511111 C2.87177778,1.45511111 2.34755556,1.65733333 1.98622222,2.04 C1.64377778,2.40222222 1.45511111,2.92155556 1.45511111,3.50177778 L1.45511111,3.70155556 C1.45511111,4.10266667 1.12866667,4.42911111 0.727555556,4.42911111 C0.326222222,4.42911111 -1.24344979e-14,4.10266667 -1.24344979e-14,3.70155556 L-1.24344979e-14,3.50177778 C-1.24344979e-14,2.54822222 0.329777778,1.67422222 0.928666667,1.04044444 C1.57177778,0.36 2.46155556,0 3.50177778,0 C4.68666667,0 5.69711111,0.421111111 6.34711111,1.18577778 C6.91177778,1.85 7.14155556,2.714 6.994,3.61911111 C6.79622222,4.83266667 5.95066667,5.57844444 5.58955556,5.89711111 C5.44777778,6.022 5.29466667,6.14666667 5.14666667,6.26711111 C4.89755556,6.46977778 4.236,7.00866667 4.22933333,7.20111111 L4.22933333,8.12555556 C4.22933333,8.52688889 3.90288889,8.85311111 3.50177778,8.85311111" id="Path"></path>
                </g>
            </g>
        </g>
    </g>
</svg>