<?xml version="1.0" encoding="UTF-8"?>
<svg width="46px" height="46px" viewBox="0 0 46 46" version="1.1" xmlns="http://www.w3.org/2000/svg" xmlns:xlink="http://www.w3.org/1999/xlink">
    <!-- Generator: Sketch 58 (84663) - https://sketch.com -->
    <title>BUTTON</title>
    <desc>Created with Sketch.</desc>
    <g id="Symbols" stroke="none" stroke-width="1" fill="none" fill-rule="evenodd">
        <g id="BUTTON">
            <g>
                <path d="M0,23 C0,7.29757196 8.43293707,0 23,0 C37.5670629,0 46,7.29757196 46,23 C46,38.702428 37.5670629,46 23,46 C8.43293707,46 0,38.702428 0,23" id="Fill-334" fill="#FFFFFF"></path>
                <g id="Group" transform="translate(23.500000, 23.500000) rotate(-180.000000) translate(-23.500000, -23.500000) translate(16.000000, 16.000000)" fill="#00A9E0" fill-rule="nonzero">
                    <path d="M7.79263024,15 C7.3522801,15 7,14.6394592 7,14.1887832 C7,13.9784677 7.08807003,13.7681522 7.2348534,13.5878818 L13.3703986,7.4887331 L7.2348534,1.29944917 C6.97064332,0.938908363 7.05871335,0.428142213 7.38163678,0.157736605 C7.64584686,-0.0525788683 8.02748364,-0.0525788683 8.32105039,0.157736605 L14.5740223,6.43715573 C15.1317991,6.97796695 15.1317991,7.87931898 14.6327356,8.45017526 L14.6033789,8.48022033 L8.32105039,14.7295944 C8.20362369,14.9399099 7.99812696,15 7.79263024,15 Z" id="Path_3111_1_" transform="translate(11.000000, 7.500000) rotate(-180.000000) translate(-11.000000, -7.500000) "></path>
                    <path d="M0.792630236,15 C0.352280105,15 0,14.6394592 0,14.1887832 C0,13.9784677 0.0880700262,13.7681522 0.234853403,13.5878818 L6.37039856,7.4887331 L0.234853403,1.29944917 C-0.0293566754,0.938908363 0.0587133508,0.428142213 0.38163678,0.157736605 C0.645846859,-0.0525788683 1.02748364,-0.0525788683 1.32105039,0.157736605 L7.57402225,6.43715573 C8.13179908,6.97796695 8.13179908,7.87931898 7.6327356,8.45017526 L7.60337893,8.48022033 L1.32105039,14.7295944 C1.20362369,14.9399099 0.998126963,15 0.792630236,15 Z" id="Path_3111_1_"></path>
                </g>
            </g>
        </g>
    </g>
</svg>