<?xml version="1.0" encoding="UTF-8"?>
<svg width="24px" height="24px" viewBox="0 0 24 24" version="1.1" xmlns="http://www.w3.org/2000/svg" xmlns:xlink="http://www.w3.org/1999/xlink">
    <!-- Generator: Sketch 58 (84663) - https://sketch.com -->
    <title>Group</title>
    <desc>Created with Sketch.</desc>
    <g id="Page-1" stroke="none" stroke-width="1" fill="none" fill-rule="evenodd">
        <g id="USER_02" transform="translate(-36.000000, -643.000000)">
            <g id="comment-bot" transform="translate(36.000000, 580.000000)">
                <g id="Group" transform="translate(0.000000, 63.000000)">
                    <path d="M0,12 C0,3.80742885 4.39979325,0 12,0 C19.6002067,0 24,3.80742885 24,12 C24,20.1925712 19.6002067,24 12,24 C4.39979325,24 0,20.1925712 0,12" id="Fill-334" fill="#FFFFFF"></path>
                    <path d="M8.27317118,8.92212043 C7.71984858,8.92212043 6.70057011,9.20886162 6.205492,11.1013535 C5.97251406,11.9902512 5.94339182,12.907823 6.08900303,13.7967207 C6.23461424,14.5422478 6.43846993,15.2877749 6.72969235,16.0046279 C6.78793684,16.1479985 6.87530356,16.2913691 6.99179253,16.4060655 C7.16652598,16.6067844 7.48687065,16.6928067 7.74897082,16.6067844 C7.92370428,16.520762 8.12755997,16.3200432 8.04019324,15.8612573 C7.98194876,15.6031902 7.92370428,15.3451231 7.83633755,15.1157302 C7.63248186,14.5709219 7.48687065,13.9687654 7.39950392,13.395283 C7.37038168,12.7357783 7.63248186,12.67843 7.80721531,12.6210818 C8.09843773,12.5637336 8.33141566,12.8791489 8.5643936,13.2519124 C8.82649378,13.7106983 9.32157189,14.5422478 9.70016104,15.1730784 C10.1078724,15.8899314 10.8650507,16.3487173 11.7095957,16.3200432 C12.7579964,16.2913691 13.5151747,15.8899314 13.9228861,14.6569443 C14.1558641,13.8540689 14.4179642,13.0798677 14.7383089,12.3343406 C15.116898,11.5314653 15.6119762,11.0726794 16.0488098,11.21605 C16.4273989,11.3307464 16.5438879,11.70351 16.5438879,12.2769924 C16.5438879,12.7644524 16.4856434,13.3092607 16.4565212,13.7106983 C16.4273989,13.9114172 16.3982767,14.112136 16.4273989,14.3128548 C16.4273989,14.6282701 16.6312546,14.9150113 16.9515993,15.0010337 C17.3301884,15.0297078 17.6796553,14.7716407 17.7670221,14.3988772 C17.8252665,14.2268325 17.8543888,14.0547878 17.883511,13.882743 C18,13.1945642 18.0291222,12.4777112 17.9708778,11.7608582 C17.9126333,10.8719605 17.7378998,10.011737 17.3884329,9.20886162 C17.0680883,8.49200864 16.5730101,8.03322273 15.9323208,8.00454862 C15.2042648,7.94720038 14.388842,8.4346604 13.9520084,9.3235581 C13.544297,10.1551076 13.2239523,11.0153311 13.0492189,11.4454429 C12.9036077,11.8468806 12.5541408,12.1622959 12.1173071,12.2196441 C11.5639845,12.2769924 11.0980287,11.8755547 10.777684,11.3307464 C10.4282171,10.7285899 10.0496279,10.1551076 9.58367207,9.63897341 C9.32157189,9.1801875 8.82649378,8.89344631 8.27317118,8.92212043 Z" id="M" fill="#00A9E0" fill-rule="nonzero"></path>
                </g>
            </g>
        </g>
    </g>
</svg>