<?xml version="1.0" encoding="UTF-8"?>
<svg width="48px" height="48px" viewBox="0 0 48 48" version="1.1" xmlns="http://www.w3.org/2000/svg" xmlns:xlink="http://www.w3.org/1999/xlink">
    <!-- Generator: Sketch 58 (84663) - https://sketch.com -->
    <title>Imago</title>
    <desc>Created with Sketch.</desc>
    <g id="Symbols" stroke="none" stroke-width="1" fill="none" fill-rule="evenodd">
        <g id="HEADER" transform="translate(-16.000000, -16.000000)">
            <g id="Imago">
                <g transform="translate(16.000000, 16.000000)">
                    <path d="M1.5,24 C1.5,39.1106739 9.16623217,46.5 24,46.5 C38.8337678,46.5 46.5,39.1106739 46.5,24 C46.5,8.88932606 38.8337678,1.5 24,1.5 C9.16623217,1.5 1.5,8.88932606 1.5,24 Z" id="Fill-334" stroke="#FFFFFF" stroke-width="3"></path>
                    <path d="M3,24 C3,9.66300048 10.6996382,3 24,3 C37.3003618,3 45,9.66300048 45,24 C45,38.3369995 37.3003618,45 24,45 C10.6996382,45 3,38.3369995 3,24" id="Fill-334" fill="#FFFFFF"></path>
                    <path d="M17.7886186,18.5368674 C16.8664143,18.5368674 15.1676169,19.0147694 14.3424867,22.1689225 C13.9541901,23.6504186 13.905653,25.179705 14.1483384,26.6612012 C14.3910237,27.9037463 14.7307832,29.1462915 15.2161539,30.3410464 C15.3132281,30.5799974 15.4588393,30.8189484 15.6529876,31.0101092 C15.94421,31.3446406 16.4781177,31.4880112 16.9149514,31.3446406 C17.2061738,31.20127 17.5459333,30.8667386 17.4003221,30.1020955 C17.3032479,29.6719837 17.2061738,29.2418719 17.0605626,28.8595503 C16.7208031,27.9515365 16.4781177,26.9479423 16.3325065,25.9921384 C16.2839695,24.8929638 16.7208031,24.7973834 17.0120255,24.701803 C17.4973962,24.6062226 17.8856928,25.1319148 18.2739893,25.7531874 C18.710823,26.5178306 19.5359532,27.9037463 20.1669351,28.9551307 C20.846454,30.1498857 22.1084179,30.9145288 23.5159929,30.8667386 C25.2633274,30.8189484 26.5252912,30.1498857 27.2048102,28.0949071 C27.5931068,26.7567815 28.0299404,25.4664462 28.5638482,24.223901 C29.1948301,22.8857755 30.0199603,22.1211323 30.7480163,22.3600833 C31.3789982,22.5512441 31.5731465,23.1725166 31.5731465,24.1283206 C31.5731465,24.940754 31.4760724,25.8487678 31.4275353,26.5178306 C31.3789982,26.8523619 31.3304612,27.1868933 31.3789982,27.5214247 C31.3789982,28.0471169 31.7187577,28.5250189 32.2526655,28.6683895 C32.8836474,28.7161797 33.4660922,28.2860679 33.6117034,27.6647953 C33.7087776,27.3780541 33.7573147,27.0913129 33.8058517,26.8045717 C34,25.657607 34.0485371,24.462852 33.9514629,23.268097 C33.8543888,21.7866009 33.5631664,20.3528949 32.9807215,19.0147694 C32.4468138,17.8200144 31.6216836,17.0553712 30.553868,17.007581 C29.3404413,16.9120006 27.9814033,17.724434 27.2533473,19.2059302 C26.5738283,20.5918459 26.0399205,22.0255519 25.7486981,22.7424049 C25.5060128,23.4114676 24.9235679,23.9371598 24.1955119,24.0327402 C23.2733075,24.1283206 22.4967144,23.4592578 21.9628066,22.5512441 C21.3803618,21.5476499 20.7493799,20.5918459 19.9727868,19.7316223 C19.5359532,18.9669792 18.710823,18.4890772 17.7886186,18.5368674 Z" id="M" fill="#00A9E0" fill-rule="nonzero"></path>
                </g>
            </g>
        </g>
    </g>
</svg>